<svg width="26" height="26" viewBox="0 0 26 26" fill="none" xmlns="http://www.w3.org/2000/svg">
<path d="M12.5418 0C9.13584 0 8.70919 0.0152865 7.37117 0.0776655C2.8159 0.29217 0.284757 2.8894 0.0755673 7.57583C0.0142738 8.95002 0 9.38951 0 12.89C0 16.3905 0.0142738 16.8301 0.0755673 18.2053C0.284757 22.8869 2.81182 25.4873 7.37117 25.7023C8.70919 25.7653 9.13584 25.78 12.5418 25.78C15.9477 25.78 16.3754 25.7653 17.7134 25.7023C22.2636 25.4884 24.8024 22.8916 25.008 18.2053C25.0693 16.8301 25.0835 16.3916 25.0835 12.89C25.0835 9.3884 25.0691 8.95002 25.008 7.57583C24.8029 2.89939 22.2732 0.292663 17.7134 0.0776655C16.3754 0.0152865 15.9477 0 12.5418 0Z" fill="#F95D44"/>
<path d="M18.4785 6.41661H17.1238C17.5829 7.26069 17.8233 8.21188 17.8218 9.17891C17.8218 12.3102 15.3525 14.8475 12.3065 14.8475C9.26039 14.8475 6.79102 12.3096 6.79102 9.17891C6.79102 6.04825 9.26027 3.51031 12.3069 3.51031H18.479L18.4785 6.41661ZM12.3069 6.51338C10.8745 6.51338 9.71331 7.70672 9.71331 9.17891C9.71331 10.6511 10.874 11.8444 12.3069 11.8444C13.7398 11.8444 14.9005 10.6511 14.9005 9.17891C14.9005 7.70672 13.7388 6.51338 12.3069 6.51338ZM9.71283 22.9258L17.8547 17.3141V13.6501L9.71283 19.2617V22.9258Z" fill="white"/>
</svg>
